<?xml version="1.0" encoding="UTF-8" standalone="no"?>
<svg
   id="emoji"
   viewBox="0 0 45 12"
   version="1.1"
   sodipodi:docname="state2.svg"
   width="45"
   height="12"
   inkscape:version="1.1.2 (b8e25be833, 2022-02-05)"
   xmlns:inkscape="http://www.inkscape.org/namespaces/inkscape"
   xmlns:sodipodi="http://sodipodi.sourceforge.net/DTD/sodipodi-0.dtd"
   xmlns="http://www.w3.org/2000/svg"
   xmlns:svg="http://www.w3.org/2000/svg">
  <defs
     id="defs35" />
  <sodipodi:namedview
     id="namedview33"
     pagecolor="#ffffff"
     bordercolor="#666666"
     borderopacity="1.0"
     inkscape:pageshadow="2"
     inkscape:pageopacity="0.0"
     inkscape:pagecheckerboard="0"
     showgrid="true"
     inkscape:zoom="22.166667"
     inkscape:cx="28.885899"
     inkscape:cy="3.1278373"
     inkscape:window-width="2400"
     inkscape:window-height="1261"
     inkscape:window-x="2391"
     inkscape:window-y="-9"
     inkscape:window-maximized="1"
     inkscape:current-layer="emoji">
    <inkscape:grid
       type="xygrid"
       id="grid156" />
  </sodipodi:namedview>
  <g
     id="color"
     transform="matrix(0.20790671,0,0,0.20870789,-1.4339842,-1.3549756)">
    <path
       fill="#ea5a47"
       d="M 59.5,25 C 59.5,18.0964 53.9036,12.5 47,12.5 42.2467,12.5 38.1139,15.1536 36,19.0598 33.8861,15.1536 29.7533,12.5 25,12.5 c -6.9036,0 -12.5,5.5964 -12.5,12.5 0,2.9699 1.0403,5.6942 2.7703,7.8387 L 15.266,32.8421 36,58.5397 56.7339,32.8422 56.7296,32.8388 C 58.4597,30.6942 59.5,27.9699 59.5,25 Z"
       id="path23" />
  </g>
  <g
     id="hair" />
  <g
     id="skin" />
  <g
     id="skin-shadow" />
  <g
     id="line"
     transform="matrix(0.20304746,0,0,0.20452513,-1.3350458,-1.352039)">
    <path
       fill="none"
       stroke="#000000"
       stroke-linejoin="round"
       stroke-miterlimit="10"
       stroke-width="2"
       d="M 59.5,25 C 59.5,18.0964 53.9036,12.5 47,12.5 42.2467,12.5 38.1139,15.1536 36,19.0598 33.8861,15.1536 29.7533,12.5 25,12.5 c -6.9036,0 -12.5,5.5964 -12.5,12.5 0,2.9699 1.0403,5.6942 2.7703,7.8387 L 15.266,32.8421 36,58.5397 56.7339,32.8422 56.7296,32.8388 C 58.4597,30.6942 59.5,27.9699 59.5,25 Z"
       id="path29" />
  </g>
  <g
     id="color-6"
     transform="matrix(0.20304746,0,0,0.20452513,9.6649542,-1.352039)">
    <path
       fill="#ea5a47"
       d="M 59.5,25 C 59.5,18.0964 53.9036,12.5 47,12.5 42.2467,12.5 38.1139,15.1536 36,19.0598 33.8861,15.1536 29.7533,12.5 25,12.5 c -6.9036,0 -12.5,5.5964 -12.5,12.5 0,2.9699 1.0403,5.6942 2.7703,7.8387 L 15.266,32.8421 36,58.5397 56.7339,32.8422 56.7296,32.8388 C 58.4597,30.6942 59.5,27.9699 59.5,25 Z"
       id="path23-3" />
  </g>
  <g
     id="color-6-6"
     transform="matrix(0.20304746,0,0,0.20452513,20.689907,-1.5565641)">
    <path
       fill="#ea5a47"
       d="M 59.5,25 C 59.5,18.0964 53.9036,12.5 47,12.5 42.2467,12.5 38.1139,15.1536 36,19.0598 33.8861,15.1536 29.7533,12.5 25,12.5 c -6.9036,0 -12.5,5.5964 -12.5,12.5 0,2.9699 1.0403,5.6942 2.7703,7.8387 L 15.266,32.8421 36,58.5397 56.7339,32.8422 56.7296,32.8388 C 58.4597,30.6942 59.5,27.9699 59.5,25 Z"
       id="path23-3-2" />
  </g>
  <g
     id="color-6-6-5"
     transform="matrix(0.21168085,0,0,0.21322135,31.35399,-1.6652669)">
    <path
       fill="#ea5a47"
       d="M 59.5,25 C 59.5,18.0964 53.9036,12.5 47,12.5 42.2467,12.5 38.1139,15.1536 36,19.0598 33.8861,15.1536 29.7533,12.5 25,12.5 c -6.9036,0 -12.5,5.5964 -12.5,12.5 0,2.9699 1.0403,5.6942 2.7703,7.8387 L 15.266,32.8421 36,58.5397 56.7339,32.8422 56.7296,32.8388 C 58.4597,30.6942 59.5,27.9699 59.5,25 Z"
       id="path23-3-2-1" />
  </g>
  <g
     id="line-4"
     transform="matrix(0.20304746,0,0,0.20452513,9.6649542,-1.352039)">
    <path
       fill="none"
       stroke="#000000"
       stroke-linejoin="round"
       stroke-miterlimit="10"
       stroke-width="2"
       d="M 59.5,25 C 59.5,18.0964 53.9036,12.5 47,12.5 42.2467,12.5 38.1139,15.1536 36,19.0598 33.8861,15.1536 29.7533,12.5 25,12.5 c -6.9036,0 -12.5,5.5964 -12.5,12.5 0,2.9699 1.0403,5.6942 2.7703,7.8387 L 15.266,32.8421 36,58.5397 56.7339,32.8422 56.7296,32.8388 C 58.4597,30.6942 59.5,27.9699 59.5,25 Z"
       id="path29-6" />
  </g>
  <g
     id="line-4-7"
     transform="matrix(0.20304746,0,0,0.20452513,20.664954,-1.352039)">
    <path
       fill="none"
       stroke="#000000"
       stroke-linejoin="round"
       stroke-miterlimit="10"
       stroke-width="2"
       d="M 59.5,25 C 59.5,18.0964 53.9036,12.5 47,12.5 42.2467,12.5 38.1139,15.1536 36,19.0598 33.8861,15.1536 29.7533,12.5 25,12.5 c -6.9036,0 -12.5,5.5964 -12.5,12.5 0,2.9699 1.0403,5.6942 2.7703,7.8387 L 15.266,32.8421 36,58.5397 56.7339,32.8422 56.7296,32.8388 C 58.4597,30.6942 59.5,27.9699 59.5,25 Z"
       id="path29-6-5" />
  </g>
  <g
     id="color-6-7-0"
     transform="matrix(0.20304746,0,0,0.20452513,31.664954,-1.352039)" />
  <g
     id="line-4-7-9"
     transform="matrix(0.20304746,0,0,0.20452513,31.664954,-1.352039)">
    <path
       fill="none"
       stroke="#000000"
       stroke-linejoin="round"
       stroke-miterlimit="10"
       stroke-width="2"
       d="M 59.5,25 C 59.5,18.0964 53.9036,12.5 47,12.5 42.2467,12.5 38.1139,15.1536 36,19.0598 33.8861,15.1536 29.7533,12.5 25,12.5 c -6.9036,0 -12.5,5.5964 -12.5,12.5 0,2.9699 1.0403,5.6942 2.7703,7.8387 L 15.266,32.8421 36,58.5397 56.7339,32.8422 56.7296,32.8388 C 58.4597,30.6942 59.5,27.9699 59.5,25 Z"
       id="path29-6-5-1" />
  </g>
  <g
     id="line-4-7-9-7"
     transform="matrix(0.20304746,0,0,0.20452513,42.664954,-1.352039)" />
</svg>
